
                <svg id="trend-chart" width="660" height="400" title="Stack Overflow Trends Chart" version="1.1" xmlns="http://www.w3.org/2000/svg"><g></g><g class="chart-area" transform="translate(100, 20)"><g transform="translate(0,300)" fill="none" font-size="10" font-family="sans-serif" text-anchor="middle"><path class="domain" stroke="#000" d="M0.5,6V0.5H410.5V6"></path><g class="tick" opacity="1" transform="translate(19.27121723996724,0)"><line stroke="#000" y2="6" x1="0.5" x2="0.5"></line><text fill="#000" y="9" x="0.5" dy="0.71em" style="font-size: 12px;">2009</text></g><g class="tick" opacity="1" transform="translate(65.23251945126945,0)"><line stroke="#000" y2="6" x1="0.5" x2="0.5"></line><text fill="#000" y="9" x="0.5" dy="0.71em" style="font-size: 12px;">2010</text></g><g class="tick" opacity="1" transform="translate(111.19382166257166,0)"><line stroke="#000" y2="6" x1="0.5" x2="0.5"></line><text fill="#000" y="9" x="0.5" dy="0.71em" style="font-size: 12px;">2011</text></g><g class="tick" opacity="1" transform="translate(157.15512387387386,0)"><line stroke="#000" y2="6" x1="0.5" x2="0.5"></line><text fill="#000" y="9" x="0.5" dy="0.71em" style="font-size: 12px;">2012</text></g><g class="tick" opacity="1" transform="translate(203.24234746109747,0)"><line stroke="#000" y2="6" x1="0.5" x2="0.5"></line><text fill="#000" y="9" x="0.5" dy="0.71em" style="font-size: 12px;">2013</text></g><g class="tick" opacity="1" transform="translate(249.20364967239968,0)"><line stroke="#000" y2="6" x1="0.5" x2="0.5"></line><text fill="#000" y="9" x="0.5" dy="0.71em" style="font-size: 12px;">2014</text></g><g class="tick" opacity="1" transform="translate(295.16495188370186,0)"><line stroke="#000" y2="6" x1="0.5" x2="0.5"></line><text fill="#000" y="9" x="0.5" dy="0.71em" style="font-size: 12px;">2015</text></g><g class="tick" opacity="1" transform="translate(341.1262540950041,0)"><line stroke="#000" y2="6" x1="0.5" x2="0.5"></line><text fill="#000" y="9" x="0.5" dy="0.71em" style="font-size: 12px;">2016</text></g><g class="tick" opacity="1" transform="translate(387.2134776822277,0)"><line stroke="#000" y2="6" x1="0.5" x2="0.5"></line><text fill="#000" y="9" x="0.5" dy="0.71em" style="font-size: 12px;">2017</text></g></g><g class="grid-lines" transform="translate(0,300)" fill="none" font-size="10" font-family="sans-serif" text-anchor="middle"><path class="domain" stroke="#000" d="M0.5,-300V0.5H410.5V-300"></path><g class="tick" opacity="1" transform="translate(19.27121723996724,0)"><line stroke="#000" y2="-300" x1="0.5" x2="0.5" style="stroke: #ccc; fill: none;"></line></g><g class="tick" opacity="1" transform="translate(65.23251945126945,0)"><line stroke="#000" y2="-300" x1="0.5" x2="0.5" style="stroke: #ccc; fill: none;"></line></g><g class="tick" opacity="1" transform="translate(111.19382166257166,0)"><line stroke="#000" y2="-300" x1="0.5" x2="0.5" style="stroke: #ccc; fill: none;"></line></g><g class="tick" opacity="1" transform="translate(157.15512387387386,0)"><line stroke="#000" y2="-300" x1="0.5" x2="0.5" style="stroke: #ccc; fill: none;"></line></g><g class="tick" opacity="1" transform="translate(203.24234746109747,0)"><line stroke="#000" y2="-300" x1="0.5" x2="0.5" style="stroke: #ccc; fill: none;"></line></g><g class="tick" opacity="1" transform="translate(249.20364967239968,0)"><line stroke="#000" y2="-300" x1="0.5" x2="0.5" style="stroke: #ccc; fill: none;"></line></g><g class="tick" opacity="1" transform="translate(295.16495188370186,0)"><line stroke="#000" y2="-300" x1="0.5" x2="0.5" style="stroke: #ccc; fill: none;"></line></g><g class="tick" opacity="1" transform="translate(341.1262540950041,0)"><line stroke="#000" y2="-300" x1="0.5" x2="0.5" style="stroke: #ccc; fill: none;"></line></g><g class="tick" opacity="1" transform="translate(387.2134776822277,0)"><line stroke="#000" y2="-300" x1="0.5" x2="0.5" style="stroke: #ccc; fill: none;"></line></g></g><text x="205" y="360" class="axis-label x-axis-label" style="text-anchor: middle; font-weight: bold;">Year</text><g fill="none" font-size="10" font-family="sans-serif" text-anchor="end"><path class="domain" stroke="#000" d="M-6,300.5H0.5V0.5H-6"></path><g class="tick" opacity="1" transform="translate(0,300)"><line stroke="#000" x2="-6" y1="0.5" y2="0.5"></line><text fill="#000" x="-9" y="0.5" dy="0.32em" style="font-size: 12px;">0.00%</text></g><g class="tick" opacity="1" transform="translate(0,276.9230769230769)"><line stroke="#000" x2="-6" y1="0.5" y2="0.5"></line><text fill="#000" x="-9" y="0.5" dy="0.32em" style="font-size: 12px;">1.00%</text></g><g class="tick" opacity="1" transform="translate(0,253.84615384615384)"><line stroke="#000" x2="-6" y1="0.5" y2="0.5"></line><text fill="#000" x="-9" y="0.5" dy="0.32em" style="font-size: 12px;">2.00%</text></g><g class="tick" opacity="1" transform="translate(0,230.76923076923077)"><line stroke="#000" x2="-6" y1="0.5" y2="0.5"></line><text fill="#000" x="-9" y="0.5" dy="0.32em" style="font-size: 12px;">3.00%</text></g><g class="tick" opacity="1" transform="translate(0,207.69230769230768)"><line stroke="#000" x2="-6" y1="0.5" y2="0.5"></line><text fill="#000" x="-9" y="0.5" dy="0.32em" style="font-size: 12px;">4.00%</text></g><g class="tick" opacity="1" transform="translate(0,184.6153846153846)"><line stroke="#000" x2="-6" y1="0.5" y2="0.5"></line><text fill="#000" x="-9" y="0.5" dy="0.32em" style="font-size: 12px;">5.00%</text></g><g class="tick" opacity="1" transform="translate(0,161.53846153846155)"><line stroke="#000" x2="-6" y1="0.5" y2="0.5"></line><text fill="#000" x="-9" y="0.5" dy="0.32em" style="font-size: 12px;">6.00%</text></g><g class="tick" opacity="1" transform="translate(0,138.46153846153842)"><line stroke="#000" x2="-6" y1="0.5" y2="0.5"></line><text fill="#000" x="-9" y="0.5" dy="0.32em" style="font-size: 12px;">7.00%</text></g><g class="tick" opacity="1" transform="translate(0,115.38461538461539)"><line stroke="#000" x2="-6" y1="0.5" y2="0.5"></line><text fill="#000" x="-9" y="0.5" dy="0.32em" style="font-size: 12px;">8.00%</text></g><g class="tick" opacity="1" transform="translate(0,92.30769230769232)"><line stroke="#000" x2="-6" y1="0.5" y2="0.5"></line><text fill="#000" x="-9" y="0.5" dy="0.32em" style="font-size: 12px;">9.00%</text></g><g class="tick" opacity="1" transform="translate(0,69.23076923076923)"><line stroke="#000" x2="-6" y1="0.5" y2="0.5"></line><text fill="#000" x="-9" y="0.5" dy="0.32em" style="font-size: 12px;">10.00%</text></g><g class="tick" opacity="1" transform="translate(0,46.15384615384616)"><line stroke="#000" x2="-6" y1="0.5" y2="0.5"></line><text fill="#000" x="-9" y="0.5" dy="0.32em" style="font-size: 12px;">11.00%</text></g><g class="tick" opacity="1" transform="translate(0,23.076923076923094)"><line stroke="#000" x2="-6" y1="0.5" y2="0.5"></line><text fill="#000" x="-9" y="0.5" dy="0.32em" style="font-size: 12px;">12.00%</text></g><g class="tick" opacity="1" transform="translate(0,0)"><line stroke="#000" x2="-6" y1="0.5" y2="0.5"></line><text fill="#000" x="-9" y="0.5" dy="0.32em" style="font-size: 12px;">13.00%</text></g></g><g class="grid-lines" fill="none" font-size="10" font-family="sans-serif" text-anchor="end"><path class="domain" stroke="#000" d="M410,300.5H0.5V0.5H410"></path><g class="tick" opacity="1" transform="translate(0,300)"><line stroke="#000" x2="410" y1="0.5" y2="0.5" style="stroke: #ccc; fill: none;"></line></g><g class="tick" opacity="1" transform="translate(0,276.9230769230769)"><line stroke="#000" x2="410" y1="0.5" y2="0.5" style="stroke: #ccc; fill: none;"></line></g><g class="tick" opacity="1" transform="translate(0,253.84615384615384)"><line stroke="#000" x2="410" y1="0.5" y2="0.5" style="stroke: #ccc; fill: none;"></line></g><g class="tick" opacity="1" transform="translate(0,230.76923076923077)"><line stroke="#000" x2="410" y1="0.5" y2="0.5" style="stroke: #ccc; fill: none;"></line></g><g class="tick" opacity="1" transform="translate(0,207.69230769230768)"><line stroke="#000" x2="410" y1="0.5" y2="0.5" style="stroke: #ccc; fill: none;"></line></g><g class="tick" opacity="1" transform="translate(0,184.6153846153846)"><line stroke="#000" x2="410" y1="0.5" y2="0.5" style="stroke: #ccc; fill: none;"></line></g><g class="tick" opacity="1" transform="translate(0,161.53846153846155)"><line stroke="#000" x2="410" y1="0.5" y2="0.5" style="stroke: #ccc; fill: none;"></line></g><g class="tick" opacity="1" transform="translate(0,138.46153846153842)"><line stroke="#000" x2="410" y1="0.5" y2="0.5" style="stroke: #ccc; fill: none;"></line></g><g class="tick" opacity="1" transform="translate(0,115.38461538461539)"><line stroke="#000" x2="410" y1="0.5" y2="0.5" style="stroke: #ccc; fill: none;"></line></g><g class="tick" opacity="1" transform="translate(0,92.30769230769232)"><line stroke="#000" x2="410" y1="0.5" y2="0.5" style="stroke: #ccc; fill: none;"></line></g><g class="tick" opacity="1" transform="translate(0,69.23076923076923)"><line stroke="#000" x2="410" y1="0.5" y2="0.5" style="stroke: #ccc; fill: none;"></line></g><g class="tick" opacity="1" transform="translate(0,46.15384615384616)"><line stroke="#000" x2="410" y1="0.5" y2="0.5" style="stroke: #ccc; fill: none;"></line></g><g class="tick" opacity="1" transform="translate(0,23.076923076923094)"><line stroke="#000" x2="410" y1="0.5" y2="0.5" style="stroke: #ccc; fill: none;"></line></g><g class="tick" opacity="1" transform="translate(0,0)"><line stroke="#000" x2="410" y1="0.5" y2="0.5" style="stroke: #ccc; fill: none;"></line></g></g><g class="lines"><path class="line" d="M3.9035626535626538,213.23515384615388L7.681203931203931,220.52584615384615L11.584766584766585,219.13476923076922L15.367654586404585,216.8063076923077L19.27121723996724,209.36215384615386L23.174779893529895,218.256L26.70057841932842,214.69038461538463L30.598894348894348,218.17915384615384L34.37653562653563,211.70076923076923L38.28009828009828,215.96861538461536L42.05773955773956,217.86069230769232L45.96130221130221,220.36684615384615L49.86486486486487,219.02723076923078L53.64250614250615,210.35653846153846L57.546068796068795,207.1149230769231L61.328956797706795,203.90907692307692L65.23251945126945,200.62823076923075L69.1360821048321,204.7006153846154L72.66188063063062,209.19484615384616L76.56019656019656,217.0472307692308L80.33783783783784,211.26807692307693L84.2414004914005,209.21169230769232L88.01904176904176,202.02115384615382L91.92260442260442,210.35423076923078L95.82616707616708,215.82115384615383L99.60380835380836,204.16430769230772L103.50737100737102,214.23276923076924L107.29025900900902,218.3148461538462L111.19382166257166,216.97430769230766L115.09738431613431,216.97776923076924L118.62318284193283,215.1567692307692L122.52149877149877,220.3926923076923L126.29914004914005,219.91823076923077L130.20270270270268,220.22284615384615L133.98034398034397,216.85199999999998L137.88390663390663,218.53938461538462L141.7874692874693,221.74592307692308L145.5651105651106,218.4906923076923L149.46867321867322,219.01823076923077L153.25156122031123,220.45015384615385L157.15512387387386,217.46353846153846L161.05868652743652,217.64423076923077L164.71040642915642,214.48130769230767L168.60872235872236,213.23192307692307L172.38636363636365,213.7746923076923L176.28992628992629,208.42176923076923L180.06756756756758,208.31469230769233L183.9711302211302,205.8L187.87469287469287,209.3882307692308L191.65233415233416,206.83753846153846L195.5558968058968,201.70246153846153L199.3387848075348,203.29476923076925L203.24234746109747,205.34007692307694L207.14591011466013,200.60538461538465L210.67170864045866,200.4985384615385L214.5700245700246,195.2423076923077L218.34766584766584,193.3467692307692L222.25122850122852,191.04000000000002L226.02886977886976,189.45507692307694L229.93243243243245,194.00815384615385L233.8359950859951,190.59946153846153L237.61363636363637,182.93353846153846L241.51719901719903,177.42184615384616L245.30008701883702,183.579L249.20364967239968,181.57476923076925L253.10721232596234,180.3099230769231L256.63301085176084,175.13446153846155L260.5313267813268,174.0528461538462L264.3089680589681,180.59146153846154L268.21253071253074,175.6343076923077L271.99017199017203,172.683L275.89373464373466,173.39676923076922L279.7972972972973,179.6623846153846L283.5749385749386,173.71476923076924L287.4785012285012,169.13330769230768L291.26138923013923,167.49138461538462L295.16495188370186,167.06953846153846L299.06851453726455,162.01223076923077L302.59431306306305,160.73746153846156L306.492628992629,162.53930769230772L310.27027027027026,162.33392307692307L314.17383292383295,156.86053846153848L317.95147420147424,156.2146153846154L321.8550368550369,158.89546153846155L325.7585995085995,159.45138461538463L329.5362407862408,147.22569230769233L333.4398034398034,142.63984615384615L337.22269144144144,146.475L341.1262540950041,144.56861538461538L345.02981674856676,139.84938461538462L348.68153665028666,140.99423076923077L352.57985257985257,141.68053846153848L356.35749385749386,142.49607692307694L360.2610565110565,140.46807692307695L364.0386977886978,134.60192307692307L367.9422604422604,140.89938461538463L371.8458230958231,143.0533846153846L375.62346437346434,132.52476923076924L379.52702702702703,123.13430769230771L383.30991502866505,124.72915384615385L387.2134776822277,123.85500000000002L391.1170403357903,114.47446153846153L394.64283886158887,114.38284615384617L398.5411547911548,109.0892307692308L402.3187960687961,111.23700000000002L406.2223587223587,104.0259230769231L410,96.39069230769232" data-legend="python" style="stroke: rgb(31, 119, 180); fill: none;"></path><path class="line" d="M3.9035626535626538,198.29769230769233L7.681203931203931,188.0556923076923L11.584766584766585,197.22623076923077L15.367654586404585,182.32961538461538L19.27121723996724,186.91707692307693L23.174779893529895,177.19015384615383L26.70057841932842,187.80900000000003L30.598894348894348,187.6426153846154L34.37653562653563,173.50523076923076L38.28009828009828,174.87738461538464L42.05773955773956,177.2466923076923L45.96130221130221,170.31761538461538L49.86486486486487,179.05846153846153L53.64250614250615,172.0636153846154L57.546068796068795,167.94946153846152L61.328956797706795,160.71946153846153L65.23251945126945,167.01346153846154L69.1360821048321,165.57346153846154L72.66188063063062,169.49215384615385L76.56019656019656,162.56538461538463L80.33783783783784,158.61623076923078L84.2414004914005,158.0386153846154L88.01904176904176,154.4356153846154L91.92260442260442,156.35930769230768L95.82616707616708,150.41053846153844L99.60380835380836,152.23384615384614L103.50737100737102,150.95146153846156L107.29025900900902,137.18446153846156L111.19382166257166,144.44030769230767L115.09738431613431,145.74553846153847L118.62318284193283,147.01246153846157L122.52149877149877,135.12946153846158L126.29914004914005,133.87453846153846L130.20270270270268,123.15646153846154L133.98034398034397,116.5116923076923L137.88390663390663,110.26338461538461L141.7874692874693,116.77107692307692L145.5651105651106,119.21792307692306L149.46867321867322,118.32069230769233L153.25156122031123,116.84953846153846L157.15512387387386,111.57046153846156L161.05868652743652,116.32546153846152L164.71040642915642,117.82407692307694L168.60872235872236,111.10153846153844L172.38636363636365,104.63861538461538L176.28992628992629,104.09907692307695L180.06756756756758,102.0890769230769L183.9711302211302,99.35353846153845L187.87469287469287,107.38984615384618L191.65233415233416,111.35169230769233L195.5558968058968,109.93569230769234L199.3387848075348,102.35100000000003L203.24234746109747,100.1843076923077L207.14591011466013,96.75369230769232L210.67170864045866,99.14053846153845L214.5700245700246,95.77038461538461L218.34766584766584,94.44576923076926L222.25122850122852,90.3999230769231L226.02886977886976,83.00538461538463L229.93243243243245,74.5583076923077L233.8359950859951,55.78846153846155L237.61363636363637,55.700769230769254L241.51719901719903,60.6738461538462L245.30008701883702,51.27692307692308L249.20364967239968,45.18923076923076L253.10721232596234,43.29000000000002L256.63301085176084,51.25846153846152L260.5313267813268,48.61615384615388L264.3089680589681,44.0953846153846L268.21253071253074,43.086923076923085L271.99017199017203,41.1830769230769L275.89373464373466,42.2746153846154L279.7972972972973,51.35538461538465L283.5749385749386,50.54538461538465L287.4785012285012,53.8453846153846L291.26138923013923,50.206153846153825L295.16495188370186,45.579230769230804L299.06851453726455,47.370000000000005L302.59431306306305,53.561538461538504L306.492628992629,48.685384615384606L310.27027027027026,27.978461538461545L314.17383292383295,25.710000000000036L317.95147420147424,20.189999999999998L321.8550368550369,21.24230769230769L325.7585995085995,25.306153846153848L329.5362407862408,32.97230769230771L333.4398034398034,27.38076923076926L337.22269144144144,21.316153846153895L341.1262540950041,16.246153846153845L345.02981674856676,28.170000000000016L348.68153665028666,27.45923076923077L352.57985257985257,28.599230769230758L356.35749385749386,23.2961538461538L360.2610565110565,25.756153846153836L364.0386977886978,14.076923076923038L367.9422604422604,18.597692307692284L371.8458230958231,33.85384615384618L375.62346437346434,40.45153846153846L379.52702702702703,38.824615384615356L383.30991502866505,28.806923076923113L387.2134776822277,29.79000000000002L391.1170403357903,32.28923076923081L394.64283886158887,37.85769230769233L398.5411547911548,36.08307692307693L402.3187960687961,34.700769230769254L406.2223587223587,32.7853846153846L410,35.56384615384616" data-legend="javascript" style="stroke: rgb(255, 127, 14); fill: none;"></path><path class="line" d="M3.9035626535626538,117.88915384615385L7.681203931203931,121.56946153846155L11.584766584766585,127.93846153846152L15.367654586404585,142.2316153846154L19.27121723996724,134.02130769230774L23.174779893529895,143.22692307692307L26.70057841932842,139.1559230769231L30.598894348894348,135.82615384615386L34.37653562653563,138.5736923076923L38.28009828009828,129.20284615384617L42.05773955773956,139.6493076923077L45.96130221130221,146.85923076923078L49.86486486486487,143.23176923076923L53.64250614250615,141.93115384615385L57.546068796068795,135.82407692307694L61.328956797706795,137.2546153846154L65.23251945126945,110.04092307692306L69.1360821048321,116.82969230769231L72.66188063063062,105.06807692307692L76.56019656019656,122.0226923076923L80.33783783783784,115.87223076923081L84.2414004914005,123.97753846153844L88.01904176904176,129.98769230769233L91.92260442260442,130.39892307692307L95.82616707616708,123.31730769230768L99.60380835380836,119.24238461538462L103.50737100737102,116.06353846153849L107.29025900900902,113.15561538461537L111.19382166257166,112.16838461538464L115.09738431613431,110.29338461538461L118.62318284193283,107.65869230769229L122.52149877149877,111.3466153846154L126.29914004914005,104.53823076923078L130.20270270270268,117.35538461538465L133.98034398034397,114.66646153846156L137.88390663390663,114.6376153846154L141.7874692874693,113.60007692307695L145.5651105651106,107.42053846153848L149.46867321867322,98.04415384615385L153.25156122031123,97.36038461538462L157.15512387387386,100.506L161.05868652743652,97.83600000000007L164.71040642915642,88.35161538461537L168.60872235872236,86.90284615384616L172.38636363636365,93.19984615384618L176.28992628992629,106.03315384615385L180.06756756756758,103.24776923076922L183.9711302211302,102.471L187.87469287469287,99.27392307692304L191.65233415233416,94.26092307692306L195.5558968058968,90.14446153846154L199.3387848075348,90.10223076923077L203.24234746109747,101.3109230769231L207.14591011466013,95.47199999999998L210.67170864045866,91.04446153846155L214.5700245700246,83.92984615384617L218.34766584766584,90.31938461538462L222.25122850122852,98.74869230769232L226.02886977886976,104.23407692307691L229.93243243243245,98.4216923076923L233.8359950859951,75.73961538461538L237.61363636363637,67.75384615384615L241.51719901719903,57.11307692307693L245.30008701883702,58.677692307692325L249.20364967239968,74.57376923076922L253.10721232596234,65.76000000000002L256.63301085176084,58.463076923076954L260.5313267813268,54.9346153846154L264.3089680589681,67.30153846153846L268.21253071253074,76.48200000000003L271.99017199017203,76.26692307692309L275.89373464373466,80.8216153846154L279.7972972972973,70.00869230769229L283.5749385749386,63.51692307692309L287.4785012285012,55.29230769230773L291.26138923013923,59.102307692307676L295.16495188370186,72.24553846153847L299.06851453726455,72.57830769230773L302.59431306306305,62.23153846153846L306.492628992629,61.991538461538454L310.27027027027026,71.53407692307692L314.17383292383295,82.86784615384616L317.95147420147424,81.39576923076925L321.8550368550369,84.6546923076923L325.7585995085995,82.09546153846156L329.5362407862408,72.83699999999999L333.4398034398034,71.76253846153847L337.22269144144144,80.50476923076926L341.1262540950041,89.9425384615385L345.02981674856676,83.24861538461542L348.68153665028666,74.5583076923077L352.57985257985257,73.22861538461541L356.35749385749386,93.99046153846155L360.2610565110565,102.30761538461539L364.0386977886978,106.60661538461537L367.9422604422604,109.6663846153846L371.8458230958231,107.75492307692309L375.62346437346434,103.84246153846155L379.52702702702703,99.0196153846154L383.30991502866505,108.03207692307694L387.2134776822277,114.85661538461537L391.1170403357903,114.07846153846157L394.64283886158887,106.55446153846154L398.5411547911548,99.9962307692308L402.3187960687961,102.53746153846151L406.2223587223587,115.69384615384615L410,120.58084615384615" data-legend="java" style="stroke: rgb(44, 160, 44); fill: none;"></path><path class="line" d="M3.9035626535626538,222.13407692307692L7.681203931203931,203.6723076923077L11.584766584766585,209.69446153846155L15.367654586404585,210.2483076923077L19.27121723996724,208.21846153846155L23.174779893529895,200.1766153846154L26.70057841932842,199.25030769230767L30.598894348894348,196.58007692307694L34.37653562653563,195.11700000000002L38.28009828009828,172.62600000000003L42.05773955773956,156.8346923076923L45.96130221130221,146.85923076923078L49.86486486486487,142.81753846153848L53.64250614250615,150.40592307692307L57.546068796068795,139.61053846153848L61.328956797706795,128.56846153846152L65.23251945126945,124.46169230769232L69.1360821048321,138.09784615384615L72.66188063063062,135.4239230769231L76.56019656019656,132.81900000000002L80.33783783783784,124.0703076923077L84.2414004914005,131.61484615384614L88.01904176904176,126.09392307692312L91.92260442260442,114.48646153846158L95.82616707616708,123.94915384615385L99.60380835380836,137.1113076923077L103.50737100737102,130.91284615384615L107.29025900900902,121.80715384615388L111.19382166257166,115.35300000000001L115.09738431613431,114.4788461538462L118.62318284193283,115.07538461538459L122.52149877149877,116.2216153846154L126.29914004914005,114.90415384615383L130.20270270270268,114.24923076923076L133.98034398034397,101.90723076923078L137.88390663390663,108.80538461538464L141.7874692874693,117.96853846153849L145.5651105651106,117.14007692307692L149.46867321867322,116.76253846153847L153.25156122031123,115.25630769230773L157.15512387387386,115.68092307692308L161.05868652743652,116.14315384615384L164.71040642915642,112.88676923076923L168.60872235872236,114.47838461538464L172.38636363636365,113.61161538461542L176.28992628992629,114.47769230769231L180.06756756756758,110.16876923076921L183.9711302211302,106.8036923076923L187.87469287469287,109.29046153846153L191.65233415233416,119.5426153846154L195.5558968058968,116.90999999999997L199.3387848075348,111.61269230769233L203.24234746109747,112.24869230769232L207.14591011466013,111.2026153846154L210.67170864045866,111.95538461538459L214.5700245700246,119.22853846153848L218.34766584766584,118.39315384615387L222.25122850122852,115.03361538461536L226.02886977886976,113.48330769230768L229.93243243243245,106.51776923076923L233.8359950859951,101.73853846153847L237.61363636363637,108.04569230769229L241.51719901719903,105.26630769230775L245.30008701883702,98.94992307692306L249.20364967239968,94.56623076923077L253.10721232596234,96.72138461538461L256.63301085176084,96.44492307692309L260.5313267813268,90.31223076923075L264.3089680589681,106.65253846153848L268.21253071253074,115.11276923076923L271.99017199017203,114.07292307692308L275.89373464373466,113.69238461538458L279.7972972972973,114.6602307692308L283.5749385749386,118.39315384615387L287.4785012285012,119.6019230769231L291.26138923013923,115.81430769230772L295.16495188370186,110.6233846153846L299.06851453726455,115.39015384615382L302.59431306306305,118.54246153846157L306.492628992629,118.02069230769229L310.27027027027026,118.98415384615387L314.17383292383295,123.81992307692309L317.95147420147424,118.35992307692308L321.8550368550369,118.39823076923076L325.7585995085995,124.16492307692312L329.5362407862408,127.88053846153846L333.4398034398034,127.51615384615383L337.22269144144144,116.17315384615387L341.1262540950041,114.78276923076922L345.02981674856676,117.45807692307696L348.68153665028666,126.93761538461538L352.57985257985257,129.9932307692308L356.35749385749386,124.19492307692306L360.2610565110565,129.0835384615385L364.0386977886978,131.40484615384617L367.9422604422604,138.8123076923077L371.8458230958231,142.84523076923074L375.62346437346434,143.22715384615384L379.52702702702703,148.10353846153845L383.30991502866505,141.9406153846154L387.2134776822277,139.3596923076923L391.1170403357903,140.75030769230767L394.64283886158887,143.1489230769231L398.5411547911548,144.15784615384618L402.3187960687961,144.54876923076924L406.2223587223587,151.647L410,151.416" data-legend="php" style="stroke: rgb(214, 39, 40); fill: none;"></path><path class="line" d="M3.9035626535626538,178.275L7.681203931203931,173.98546153846155L11.584766584766585,168.37107692307694L15.367654586404585,180.64315384615387L19.27121723996724,177.19569230769233L23.174779893529895,189.84553846153847L26.70057841932842,182.03284615384615L30.598894348894348,190.8346153846154L34.37653562653563,191.58853846153846L38.28009828009828,198.5993076923077L42.05773955773956,196.74692307692305L45.96130221130221,201.71169230769232L49.86486486486487,198.387L53.64250614250615,193.59553846153847L57.546068796068795,195.6373846153846L61.328956797706795,199.44530769230767L65.23251945126945,198.19084615384614L69.1360821048321,183.58523076923078L72.66188063063062,193.29646153846153L76.56019656019656,186.11653846153848L80.33783783783784,193.9073076923077L84.2414004914005,184.25815384615385L88.01904176904176,198.951L91.92260442260442,204.99046153846155L95.82616707616708,197.53592307692307L99.60380835380836,194.7126923076923L103.50737100737102,189.49453846153847L107.29025900900902,196.8650769230769L111.19382166257166,199.8572307692308L115.09738431613431,205.18776923076925L118.62318284193283,205.4476153846154L122.52149877149877,200.58553846153848L126.29914004914005,211.42684615384616L130.20270270270268,212.1606923076923L133.98034398034397,212.73392307692308L137.88390663390663,215.75007692307693L141.7874692874693,212.14430769230768L145.5651105651106,202.17992307692307L149.46867321867322,206.01299999999998L153.25156122031123,204.03807692307691L157.15512387387386,210.74307692307693L161.05868652743652,206.09515384615383L164.71040642915642,210.82476923076922L168.60872235872236,206.16323076923078L172.38636363636365,215.4853846153846L176.28992628992629,218.85253846153847L180.06756756756758,215.41015384615383L183.9711302211302,216.84761538461538L187.87469287469287,215.2783846153846L191.65233415233416,210.156L195.5558968058968,203.3390769230769L199.3387848075348,204.32953846153845L203.24234746109747,212.89800000000002L207.14591011466013,210.17492307692308L210.67170864045866,205.97769230769228L214.5700245700246,205.2773076923077L218.34766584766584,206.49738461538465L222.25122850122852,211.13653846153846L226.02886977886976,215.39146153846156L229.93243243243245,216.43823076923076L233.8359950859951,209.77453846153847L237.61363636363637,201.18692307692308L241.51719901719903,194.7846923076923L245.30008701883702,203.27146153846155L249.20364967239968,207.2436923076923L253.10721232596234,206.88784615384617L256.63301085176084,205.01053846153846L260.5313267813268,204.96876923076923L264.3089680589681,212.25415384615386L268.21253071253074,220.2740769230769L271.99017199017203,219.19984615384615L275.89373464373466,217.99592307692308L279.7972972972973,214.68830769230772L283.5749385749386,209.83546153846154L287.4785012285012,210.0106153846154L291.26138923013923,210.86769230769232L295.16495188370186,215.6093076923077L299.06851453726455,212.41776923076924L302.59431306306305,211.32876923076924L306.492628992629,214.16446153846155L310.27027027027026,216.12300000000002L314.17383292383295,220.77738461538462L317.95147420147424,221.71153846153845L321.8550368550369,226.02115384615385L325.7585995085995,224.0796923076923L329.5362407862408,213.72830769230768L333.4398034398034,209.32107692307693L337.22269144144144,213.03438461538462L341.1262540950041,223.18753846153845L345.02981674856676,220.56530769230767L348.68153665028666,220.3573846153846L352.57985257985257,219.95238461538463L356.35749385749386,226.1296153846154L360.2610565110565,229.33453846153844L364.0386977886978,229.38807692307694L367.9422604422604,238.8076153846154L371.8458230958231,235.69107692307693L375.62346437346434,227.24653846153848L379.52702702702703,225.7783846153846L383.30991502866505,230.80015384615385L387.2134776822277,231.19292307692308L391.1170403357903,236.8726153846154L394.64283886158887,233.88807692307694L398.5411547911548,229.64376923076924L402.3187960687961,238.93546153846154L406.2223587223587,244.2803076923077L410,240.08838461538463" data-legend="c++" style="stroke: rgb(148, 103, 189); fill: none;"></path></g></g><g transform="translate(20, 150)"><text transform="rotate(-90)" x="-50" y="0" dy="1em" class="axis-label y-axis-label" style="text-anchor: middle; font-weight: bold;">% of Stack Overflow questions that month</text></g><g class="legend" transform="translate(530, 30)" style="font-size: 12px;"><text class="legend-title" style="font-weight: bold;">Tag</text><g class="legend-items" transform="translate(0,20)"><text y="0em" x="1em">javascript</text><text y="1em" x="1em">java</text><text y="2em" x="1em">php</text><text y="3em" x="1em">python</text><text y="4em" x="1em">c++</text><circle cy="-0.25em" cx="0" r="0.4em" style="fill: rgb(255, 127, 14);"></circle><circle cy="0.75em" cx="0" r="0.4em" style="fill: rgb(44, 160, 44);"></circle><circle cy="1.75em" cx="0" r="0.4em" style="fill: rgb(214, 39, 40);"></circle><circle cy="2.75em" cx="0" r="0.4em" style="fill: rgb(31, 119, 180);"></circle><circle cy="3.75em" cx="0" r="0.4em" style="fill: rgb(148, 103, 189);"></circle></g><rect class="legend-box"></rect></g></svg>
            